<?xml version="1.0" encoding="UTF-8"?>
<svg id="Layer_2" data-name="Layer 2" xmlns="http://www.w3.org/2000/svg" viewBox="0 0 484.05 500">
  <defs>
    <style>
      .cls-1 {
        fill: #d3ead3;
      }

      .cls-1, .cls-2, .cls-3 {
        stroke-width: 0px;
      }

      .cls-2 {
        fill: #f1f2f1;
      }

      .cls-3 {
        fill: #2b5740;
      }
    </style>
  </defs>
  <g id="Layer_1-2" data-name="Layer 1">
    <ellipse class="cls-3" cx="242.02" cy="250" rx="242.02" ry="250"/>
    <g>
      <path class="cls-2" d="M200.38,269.9h-50.7v-141.66c2.12-.56,5.48-1.23,10.06-2.01s9.11-1.23,13.7-1.23c9.39,0,16.21,1.68,20.52,5.03,4.3,3.35,6.43,9.62,6.43,18.73v121.14ZM149.67,211.15h50.7v160.61c-2.12.78-5.37,1.57-9.67,2.24-4.3.67-8.83,1.01-13.7,1.01-9.67,0-16.66-1.79-20.91-5.42s-6.43-9.73-6.43-18.34c0,0,0-140.09,0-140.09Z"/>
      <g>
        <path class="cls-2" d="M175,132.16v119.58c0,4.64,4.64,7.83,8.94,6.21l131.32-48.8c25.49-9.5,25.49-24.99,0-34.49l-131.32-48.69c-4.36-1.62-8.94,1.62-8.94,6.21Z"/>
        <path class="cls-1" d="M183.94,257.99l131.32-48.8c25.49-9.5,25.49-24.99,0-34.49,0,0-135.62,84.86-131.32,83.24v.06Z"/>
      </g>
    </g>
  </g>
</svg>