<?xml version="1.0" encoding="UTF-8"?>
<svg id="Layer_2" data-name="Layer 2" xmlns="http://www.w3.org/2000/svg" viewBox="0 0 278.92 45.36">
  <defs>
    <style>
      .cls-1 {
        fill: #f1f2f1;
      }

      .cls-1, .cls-2 {
        stroke-width: 0px;
      }

      .cls-2 {
        fill: #d3ead3;
      }
    </style>
  </defs>
  <g id="Layer_1-2" data-name="Layer 1">
    <g>
      <path class="cls-1" d="M9.14,26.21H0V1.01c.43-.1,1.04-.22,1.84-.36.79-.14,1.6-.22,2.41-.22,1.73,0,2.98.3,3.74.9.77.6,1.15,1.72,1.15,3.35v21.53ZM0,15.7h9.14v28.94c-.38.1-.97.22-1.76.36-.79.14-1.62.22-2.48.22-1.73,0-2.98-.32-3.74-.97-.77-.65-1.15-1.74-1.15-3.28V15.7ZM15.34,24.98l-10.94-.07L26.64.65c2.21.05,3.82.5,4.82,1.37s1.51,1.92,1.51,3.17c0,.91-.23,1.78-.68,2.59-.46.82-1.19,1.71-2.2,2.66l-14.76,14.54ZM5.47,21.82l9.43-1.94c4.42,4.51,8.3,8.53,11.66,12.06,3.36,3.53,6.12,6.35,8.28,8.46,0,1.54-.49,2.75-1.48,3.64-.98.89-2.12,1.33-3.42,1.33-1.39,0-2.56-.36-3.49-1.08-.94-.72-1.86-1.56-2.77-2.52L5.47,21.82Z"/>
      <path class="cls-1" d="M61.99,11.81c.48-.24,1.14-.47,1.98-.68.84-.22,1.69-.32,2.56-.32,1.49,0,2.72.22,3.71.65.98.43,1.57,1.1,1.76,2.02,1.01,3.07,1.91,5.89,2.7,8.46.79,2.57,1.55,5.05,2.27,7.45.72,2.4,1.44,4.9,2.16,7.49h.29c.77-4.13,1.48-8.1,2.12-11.92.65-3.82,1.27-7.62,1.87-11.41.6-3.79,1.16-7.75,1.69-11.88,1.25-.67,2.59-1.01,4.03-1.01,1.34,0,2.46.29,3.35.86.89.58,1.33,1.51,1.33,2.81,0,1.01-.12,2.45-.36,4.32s-.56,4.04-.97,6.52c-.41,2.47-.89,5.04-1.44,7.7-.55,2.66-1.13,5.3-1.73,7.92-.6,2.62-1.2,5.02-1.8,7.2-.6,2.19-1.19,4.02-1.76,5.51-.58.43-1.43.8-2.56,1.12-1.13.31-2.34.47-3.64.47-1.58,0-2.94-.23-4.07-.68-1.13-.46-1.84-1.09-2.12-1.91-.58-1.49-1.22-3.33-1.94-5.54-.72-2.21-1.46-4.62-2.23-7.24-.77-2.62-1.54-5.27-2.3-7.96-.67,2.64-1.4,5.34-2.2,8.1-.79,2.76-1.55,5.33-2.27,7.7-.72,2.38-1.37,4.36-1.94,5.94-.53.43-1.32.8-2.38,1.12-1.06.31-2.23.47-3.53.47-1.54,0-2.92-.24-4.14-.72-1.22-.48-2.03-1.1-2.41-1.87-.48-1.15-1.04-2.87-1.69-5.15-.65-2.28-1.33-4.92-2.05-7.92-.72-3-1.43-6.11-2.12-9.32-.7-3.21-1.32-6.34-1.87-9.36-.55-3.02-1-5.74-1.33-8.14.53-.48,1.22-.92,2.09-1.33.86-.41,1.8-.61,2.81-.61,1.34,0,2.42.3,3.24.9.82.6,1.34,1.6,1.58,2.99.72,3.89,1.34,7.36,1.87,10.4.53,3.05,1.02,5.82,1.48,8.32.46,2.5.89,4.84,1.3,7.02.41,2.18.88,4.38,1.4,6.59h.29c.58-2.02,1.12-3.94,1.62-5.76.5-1.82,1.03-3.67,1.58-5.54.55-1.87,1.14-3.91,1.76-6.12.62-2.21,1.3-4.75,2.02-7.63Z"/>
      <path class="cls-1" d="M111.24,26.35h-9.07V1.01c.38-.1.98-.22,1.8-.36.82-.14,1.63-.22,2.45-.22,1.68,0,2.9.3,3.67.9.77.6,1.15,1.72,1.15,3.35v21.67ZM102.17,15.84h9.07v28.73c-.38.14-.96.28-1.73.4-.77.12-1.58.18-2.45.18-1.73,0-2.98-.32-3.74-.97s-1.15-1.74-1.15-3.28V15.84Z"/>
      <path class="cls-1" d="M214.05,29.88l-8.93-.07V5.83c0-1.49.44-2.66,1.33-3.53.89-.86,2.08-1.3,3.56-1.3.82,0,1.61.07,2.38.22.77.14,1.32.26,1.66.36v28.3ZM205.12,15.77h8.93v28.44c-.34.1-.89.22-1.66.36-.77.14-1.56.22-2.38.22-1.49,0-2.68-.44-3.56-1.33-.89-.89-1.33-2.05-1.33-3.49V15.77ZM210.02,8.35V1.01h23.83c.24.34.46.82.65,1.44.19.62.29,1.3.29,2.02,0,1.25-.28,2.21-.83,2.88-.55.67-1.36,1.01-2.41,1.01h-21.53ZM210.02,25.99v-7.2h21.67c.24.34.47.82.68,1.44.22.62.32,1.3.32,2.02,0,1.25-.29,2.18-.86,2.81-.58.62-1.37.94-2.38.94h-19.44ZM210.02,44.78v-7.27h24.19c.19.34.4.82.61,1.44.22.62.32,1.32.32,2.09,0,1.25-.29,2.18-.86,2.81-.58.62-1.37.94-2.38.94h-21.89Z"/>
      <path class="cls-1" d="M259.63,29.3h-15.7V4.61c0-.86.25-1.54.76-2.02.5-.48,1.16-.86,1.98-1.15,1.54-.48,3.35-.84,5.44-1.08,2.09-.24,4.21-.36,6.37-.36,6.34,0,11.08,1.31,14.22,3.92s4.72,6.2,4.72,10.76c0,2.88-.73,5.42-2.2,7.63-1.46,2.21-3.52,3.92-6.16,5.15-2.64,1.22-5.78,1.84-9.43,1.84ZM243.93,26.14h9.14v18.43c-.38.14-.97.28-1.76.4-.79.12-1.62.18-2.48.18-1.73,0-2.98-.32-3.74-.97-.77-.65-1.15-1.74-1.15-3.28v-14.76ZM253,22.18h5.98c2.83,0,5.09-.62,6.77-1.87,1.68-1.25,2.52-3.1,2.52-5.54s-.84-4.22-2.52-5.47c-1.68-1.25-4.15-1.87-7.42-1.87-.96,0-1.9.04-2.81.11-.91.07-1.75.18-2.52.32v14.33ZM258.4,27l7.78-2.23c1.2,1.58,2.44,3.18,3.71,4.79,1.27,1.61,2.5,3.17,3.67,4.68,1.18,1.51,2.23,2.89,3.17,4.14.94,1.25,1.67,2.28,2.2,3.1-.34,1.2-.97,2.14-1.91,2.81-.94.67-1.96,1.01-3.06,1.01-1.44,0-2.56-.32-3.35-.97-.79-.65-1.55-1.52-2.27-2.63l-9.94-14.69Z"/>
      <g>
        <path class="cls-1" d="M172.87,26.35h-9.07V1.01c.38-.1.98-.22,1.8-.36.82-.14,1.63-.22,2.45-.22,1.68,0,2.9.3,3.67.9.77.6,1.15,1.72,1.15,3.35v21.67ZM163.8,15.84h9.07v28.73c-.38.14-.96.28-1.73.4-.77.12-1.58.18-2.45.18-1.73,0-2.98-.32-3.74-.97s-1.15-1.74-1.15-3.28V15.84Z"/>
        <g>
          <path class="cls-1" d="M168.33,1.71v21.39c0,.83.83,1.4,1.6,1.11l23.49-8.73c4.56-1.7,4.56-4.47,0-6.17L169.93.6c-.78-.29-1.6.29-1.6,1.11Z"/>
          <path class="cls-2" d="M169.93,24.22l23.49-8.73c4.56-1.7,4.56-4.47,0-6.17,0,0-24.26,15.18-23.49,14.89Z"/>
        </g>
      </g>
      <g>
        <path class="cls-1" d="M131.58,26.35h-9.07V1.01c.38-.1.98-.22,1.8-.36.82-.14,1.63-.22,2.45-.22,1.68,0,2.9.3,3.67.9.77.6,1.15,1.72,1.15,3.35v21.67ZM122.51,15.84h9.07v28.73c-.38.14-.96.28-1.73.4-.77.12-1.58.18-2.45.18-1.73,0-2.98-.32-3.74-.97s-1.15-1.74-1.15-3.28V15.84Z"/>
        <g>
          <path class="cls-1" d="M127.04,1.71v21.39c0,.83.83,1.4,1.6,1.11l23.49-8.73c4.56-1.7,4.56-4.47,0-6.17L128.64.6c-.78-.29-1.6.29-1.6,1.11Z"/>
          <path class="cls-2" d="M128.64,24.22l23.49-8.73c4.56-1.7,4.56-4.47,0-6.17,0,0-24.26,15.18-23.49,14.89Z"/>
        </g>
      </g>
    </g>
  </g>
</svg>