<svg width="34" height="34" viewBox="0 0 34 34" fill="none" xmlns="http://www.w3.org/2000/svg">
<path fill-rule="evenodd" clip-rule="evenodd" d="M9.44444 7.55556C9.44444 5.5517 10.2405 3.62991 11.6574 2.21297C13.0744 0.796029 14.9961 0 17 0C19.0039 0 20.9256 0.796029 22.3426 2.21297C23.7595 3.62991 24.5556 5.5517 24.5556 7.55556C24.5556 9.55941 23.7595 11.4812 22.3426 12.8981C20.9256 14.3151 19.0039 15.1111 17 15.1111C14.9961 15.1111 13.0744 14.3151 11.6574 12.8981C10.2405 11.4812 9.44444 9.55941 9.44444 7.55556ZM9.44444 18.8889C6.93962 18.8889 4.53739 19.8839 2.76621 21.6551C0.995037 23.4263 0 25.8285 0 28.3333C0 29.8362 0.597022 31.2776 1.65973 32.3403C2.72243 33.403 4.16377 34 5.66667 34H28.3333C29.8362 34 31.2776 33.403 32.3403 32.3403C33.403 31.2776 34 29.8362 34 28.3333C34 25.8285 33.005 23.4263 31.2338 21.6551C29.4626 19.8839 27.0604 18.8889 24.5556 18.8889H9.44444Z" fill="white"/>
</svg>
