<svg width="58" height="59" viewBox="0 0 58 59" fill="none" xmlns="http://www.w3.org/2000/svg">
<path fill-rule="evenodd" clip-rule="evenodd" d="M23.5 3.5C16.8061 3.5 11.25 9.23509 11.25 16.4737C11.25 23.6589 16.7245 29.3627 23.3521 29.4464C23.4507 29.4458 23.5493 29.4458 23.6479 29.4464C30.2756 29.3627 35.75 23.6589 35.75 16.4737C35.75 9.23509 30.1939 3.5 23.5 3.5ZM30.6219 30.6054C35.4765 27.915 38.75 22.5634 38.75 16.4737C38.75 7.72509 31.9939 0.5 23.5 0.5C15.0061 0.5 8.25 7.72509 8.25 16.4737C8.25 22.5635 11.5236 27.915 16.3781 30.6054C15.5046 30.8968 14.6453 31.2426 13.8049 31.6419C9.67567 33.6039 6.18382 36.7728 3.7396 40.7573C1.29576 44.7412 -0.00024637 49.3756 3.51297e-08 54.1052C4.31889e-05 54.9336 0.671651 55.6052 1.50008 55.6051C2.32851 55.6051 3.00004 54.9335 3 54.1051C2.99978 49.9207 4.14698 45.8305 6.2968 42.326C8.44623 38.822 11.5033 36.057 15.0924 34.3516C17.7004 33.1124 20.5122 32.4691 23.3458 32.4466C23.3971 32.4471 23.4485 32.4474 23.5 32.4474C23.5515 32.4474 23.6029 32.4471 23.6543 32.4466C24.6168 32.4542 25.581 32.5335 26.5399 32.6855C30.4258 33.3012 34.0701 35.0855 37.0324 37.8359C37.6395 38.3996 38.5886 38.3644 39.1522 37.7573C39.7159 37.1502 39.6807 36.2012 39.0736 35.6375C36.614 33.3537 33.733 31.6434 30.6219 30.6054ZM48.25 38.1316C49.0784 38.1316 49.75 38.8032 49.75 39.6316V46.8158H56.5C57.3284 46.8158 58 47.4874 58 48.3158C58 49.1442 57.3284 49.8158 56.5 49.8158H49.75V57C49.75 57.8284 49.0784 58.5 48.25 58.5C47.4216 58.5 46.75 57.8284 46.75 57V49.8158H40C39.1716 49.8158 38.5 49.1442 38.5 48.3158C38.5 47.4874 39.1716 46.8158 40 46.8158H46.75V39.6316C46.75 38.8032 47.4216 38.1316 48.25 38.1316Z" fill="#FFB908"/>
</svg>
