<svg width="72" height="71" viewBox="0 0 72 71" fill="none" xmlns="http://www.w3.org/2000/svg">
<path fill-rule="evenodd" clip-rule="evenodd" d="M0.5 2.4873C0.5 1.65888 1.17157 0.987305 2 0.987305H8.83633C9.54123 0.987305 10.151 1.47813 10.3017 2.16675L13.704 17.7198H70.5C70.9561 17.7198 71.3875 17.9274 71.6721 18.2838C71.9567 18.6403 72.0637 19.1068 71.9628 19.5517L66.3235 44.4135C65.9124 46.2415 64.8782 47.8711 63.3994 49.0367C61.9212 50.2019 60.0859 50.8354 58.197 50.8384L58.1946 50.8384H24.7806C22.8565 50.8765 20.9746 50.259 19.4574 49.0855C17.9349 47.908 16.8733 46.2426 16.4634 44.372L11.0523 19.636C11.0345 19.5743 11.0205 19.511 11.0107 19.4463L7.62899 3.9873H2C1.17157 3.9873 0.5 3.31573 0.5 2.4873ZM14.3603 20.7198L19.3939 43.7299C19.3938 43.7297 19.3939 43.73 19.3939 43.7299C19.6512 44.9035 20.3198 45.9599 21.2928 46.7124C22.2665 47.4656 23.4828 47.866 24.7323 47.8388C24.7383 47.8386 24.7442 47.8386 24.7502 47.8385C24.7551 47.8384 24.76 47.8384 24.765 47.8384H58.1922C59.415 47.8365 60.5967 47.426 61.5422 46.6807C62.4872 45.9358 63.1386 44.9026 63.3966 43.7553L68.6217 20.7198H14.3603ZM22.3379 64.057C21.2484 64.057 20.4197 64.9135 20.4197 65.9035C20.4197 66.8935 21.2484 67.75 22.3379 67.75C23.4274 67.75 24.2561 66.8935 24.2561 65.9035C24.2561 64.9135 23.4274 64.057 22.3379 64.057ZM17.4197 65.9035C17.4197 63.197 19.6518 61.057 22.3379 61.057C25.024 61.057 27.2561 63.197 27.2561 65.9035C27.2561 68.6099 25.024 70.75 22.3379 70.75C19.6518 70.75 17.4197 68.6099 17.4197 65.9035ZM59.9377 64.057C58.8482 64.057 58.0195 64.9135 58.0195 65.9035C58.0195 66.8935 58.8482 67.75 59.9377 67.75C61.0272 67.75 61.8559 66.8935 61.8559 65.9035C61.8559 64.9135 61.0272 64.057 59.9377 64.057ZM55.0195 65.9035C55.0195 63.197 57.2516 61.057 59.9377 61.057C62.6238 61.057 64.8559 63.197 64.8559 65.9035C64.8559 68.6099 62.6238 70.75 59.9377 70.75C57.2516 70.75 55.0195 68.6099 55.0195 65.9035Z" fill="#FFB908"/>
</svg>
