<svg width="59" height="61" viewBox="0 0 59 61" fill="none" xmlns="http://www.w3.org/2000/svg">
<path fill-rule="evenodd" clip-rule="evenodd" d="M8.57986 3.5C7.37456 3.5 6.2073 3.99572 5.33808 4.89654C4.4671 5.79919 3.96875 7.03451 3.96875 8.33333V55.2852L13.6115 45.2918C13.8942 44.9988 14.2839 44.8333 14.691 44.8333H51.3576C52.5629 44.8333 53.7302 44.3376 54.5994 43.4368C55.4704 42.5341 55.9688 41.2988 55.9688 40V8.33333C55.9688 7.03451 55.4704 5.79919 54.5994 4.89654C53.7302 3.99572 52.5629 3.5 51.3576 3.5H8.57986ZM3.17922 2.81344C4.60212 1.3388 6.54363 0.5 8.57986 0.5H51.3576C53.3939 0.5 55.3354 1.3388 56.7583 2.81344C58.1794 4.28625 58.9688 6.27275 58.9688 8.33333V40C58.9688 42.0606 58.1794 44.0471 56.7583 45.5199C55.3354 46.9945 53.3939 47.8333 51.3576 47.8333H15.328L3.54818 60.0416C3.12352 60.4817 2.4742 60.6199 1.90712 60.3909C1.34003 60.1619 0.96875 59.6116 0.96875 59V8.33333C0.96875 6.27275 1.75809 4.28625 3.17922 2.81344Z" fill="#FFB908"/>
</svg>
