<svg width="58" height="59" viewBox="0 0 58 59" fill="none" xmlns="http://www.w3.org/2000/svg">
<path fill-rule="evenodd" clip-rule="evenodd" d="M25.2582 1.40035C26.4051 0.807313 27.6951 0.5 29.0003 0.5C30.3055 0.5 31.5955 0.807313 32.7425 1.40036C32.7434 1.40086 32.7444 1.40136 32.7454 1.40186L42.7923 6.54873C43.2366 6.56156 43.6641 6.77198 43.9429 7.13818L54.1343 12.3591C55.1034 12.8607 55.9485 13.5555 56.6011 14.4008C56.7651 14.5292 56.9048 14.694 57.007 14.891C57.0548 14.9832 57.0921 15.078 57.1193 15.1742C57.692 16.1688 57.999 17.2847 58.0003 18.4285V29.356C58.0007 29.3764 58.0007 29.3967 58.0003 29.417V40.3464C57.9989 41.6039 57.628 42.8278 56.9407 43.8937C56.2545 44.9579 55.2813 45.8222 54.1343 46.4159L54.1287 46.4187L43.9431 51.6367C43.6768 51.9852 43.2613 52.2136 42.7919 52.2264L32.7454 57.3731C32.7445 57.3736 32.7436 57.374 32.7428 57.3745C31.8481 57.8371 30.8664 58.1259 29.8583 58.2306C29.6151 58.4004 29.3194 58.5 29.0003 58.5C28.6813 58.5 28.3855 58.4004 28.1424 58.2306C27.1343 58.1259 26.1525 57.8371 25.2579 57.3745C25.257 57.374 25.2561 57.3736 25.2552 57.3731L15.2087 52.2264C14.7393 52.2136 14.3238 51.9852 14.0576 51.6367L3.87196 46.4187L3.86636 46.4159C2.71934 45.8222 1.74608 44.9579 1.05994 43.8937C0.372674 42.8278 0.00175114 41.6039 0.000312403 40.3464L0.000311449 29.417C-0.000103161 29.3967 -0.000104472 29.3764 0.000311449 29.356L0.000312403 18.4285C0.0016212 17.2846 0.308697 16.1685 0.881535 15.1738C0.908762 15.0778 0.946033 14.983 0.993781 14.891C1.09586 14.6941 1.23547 14.5294 1.39931 14.4011C2.052 13.5556 2.89715 12.8608 3.86636 12.3591L3.87195 12.3562L14.0577 7.13818C14.3366 6.77198 14.764 6.56156 15.2084 6.54873L25.2552 1.40186C25.2562 1.40136 25.2572 1.40086 25.2582 1.40035ZM15.4059 9.81829L5.24537 15.0234C5.24445 15.0238 5.24353 15.0243 5.24261 15.0248C5.1225 15.0871 5.00643 15.1536 4.8946 15.2242L29.0004 27.7253L53.1061 15.2242C52.9942 15.1536 52.8781 15.087 52.7579 15.0247C52.757 15.0243 52.7561 15.0238 52.7553 15.0234L42.5947 9.81829L29.6902 16.5026C29.2576 16.7267 28.743 16.7267 28.3104 16.5026L15.4059 9.81829ZM39.3154 8.13834L31.372 4.06901L31.3664 4.06613C30.656 3.69846 29.8394 3.5 29.0003 3.5C28.1612 3.5 27.3446 3.69846 26.6343 4.06613L26.6287 4.06901L18.6852 8.13834L29.0003 13.4813L39.3154 8.13834ZM54.9128 17.6667L30.5003 30.3269V55.0575C30.8016 54.9677 31.0919 54.8509 31.3664 54.7088L31.372 54.706L41.2503 49.6454V36.51C41.2503 35.9495 41.5628 35.4358 42.0604 35.178L55.0003 28.4754V18.432C55 18.1755 54.9708 17.9192 54.9128 17.6667ZM55.0003 31.854L44.2503 37.4223V48.1086L52.7553 43.7516C52.756 43.7512 52.7568 43.7508 52.7576 43.7504C53.4657 43.3834 54.0333 42.8667 54.4193 42.268C54.8047 41.6704 54.9996 41.007 55.0003 40.343V31.854ZM27.5003 55.0575V30.3268L3.08784 17.6666C3.02991 17.9189 3.00066 18.175 3.00031 18.4312V28.4754L15.9402 35.178C16.4379 35.4358 16.7503 35.9495 16.7503 36.51V49.6454L26.6343 54.7088C26.9087 54.8509 27.199 54.9677 27.5003 55.0575ZM13.7503 48.1086V37.4223L3.00031 31.854V40.3438C3.00122 41.0075 3.19608 41.6706 3.58128 42.268C3.96731 42.8667 4.53492 43.3834 5.24293 43.7503C5.24374 43.7508 5.24456 43.7512 5.24537 43.7516L13.7503 48.1086Z" fill="#FFB908"/>
</svg>
