<svg width="62" height="62" viewBox="0 0 62 62" fill="none" xmlns="http://www.w3.org/2000/svg">
<path fill-rule="evenodd" clip-rule="evenodd" d="M27.5001 3.5C13.9691 3.5 3 14.4691 3 28.0001C3 41.5311 13.9691 52.5001 27.5001 52.5001C41.0311 52.5001 52.0001 41.5311 52.0001 28.0001C52.0001 14.4691 41.0311 3.5 27.5001 3.5ZM0 28.0001C0 12.8122 12.3122 0.5 27.5001 0.5C42.6879 0.5 55.0001 12.8122 55.0001 28.0001C55.0001 35.0543 52.3441 41.4881 47.9775 46.3561L61.0607 59.4393C61.6465 60.0251 61.6465 60.9749 61.0607 61.5607C60.4749 62.1465 59.5251 62.1465 58.9393 61.5607L45.8561 48.4775C40.9881 52.8441 34.5543 55.5001 27.5001 55.5001C12.3122 55.5001 0 43.1879 0 28.0001ZM38.3108 20.4394C38.8965 21.0252 38.8965 21.9749 38.3108 22.5607L25.3107 35.5607C24.7249 36.1465 23.7752 36.1465 23.1894 35.5607L16.6894 29.0607C16.1036 28.4749 16.1036 27.5252 16.6894 26.9394C17.2752 26.3536 18.2249 26.3536 18.8107 26.9394L24.2501 32.3788L36.1894 20.4394C36.7752 19.8536 37.725 19.8536 38.3108 20.4394Z" fill="#FFB908"/>
</svg>
